name C:\Users\Nicos\Desktop\Gil_twoSteps\Study2\ExperimentalData\IK_Splined\twoSteps_IK_BSplines_180_meshInts_study2_p02_s_01_lowIK_modROI.mot
datacolumns 38
datarows 15
range 0.65500000 0.66382888
endheader
                time	         pelvis_tilt	         pelvis_list	     pelvis_rotation	           pelvis_tx	           pelvis_ty	           pelvis_tz	       hip_flexion_r	     hip_adduction_r	      hip_rotation_r	        knee_angle_r	       ankle_angle_r	    subtalar_angle_r	         mtp_angle_r	       hip_flexion_l	     hip_adduction_l	      hip_rotation_l	        knee_angle_l	       ankle_angle_l	    subtalar_angle_l	         mtp_angle_l	    lumbar_extension	      lumbar_bending	     lumbar_rotation	          arm_flex_r	           arm_add_r	           arm_rot_r	        elbow_flex_r	           pro_sup_r	        wrist_flex_r	         wrist_dev_r	          arm_flex_l	           arm_add_l	           arm_rot_l	        elbow_flex_l	           pro_sup_l	        wrist_flex_l	         wrist_dev_l	
          0.65500000	        -17.54951908	          3.75612623	          9.30481124	          0.30818331	          0.89318224	          0.34005584	         30.45806732	         -9.40476621	        -15.86562402	       -111.22290561	        -14.95132558	        -31.61898516	         -8.98130893	         30.88868523	          6.10925688	         -0.16634122	        -50.40884508	         22.03747764	         -8.94935661	          6.04274900	        -27.94413495	         -9.08704925	         -2.16834411	        -29.64196020	        -10.40056723	        -15.94875583	         49.25150043	         77.12049816	        -27.11813386	         30.37124062	         -2.33879912	        -11.78797736	         -7.94644589	         69.04789407	         69.47991563	          4.67590000	         19.78419815	
          0.65537557	        -17.56610573	          3.72199401	          9.40753471	          0.31012330	          0.89307720	          0.33992972	         30.71212629	         -9.43502052	        -15.91209116	       -111.42063443	        -14.80278168	        -31.60586190	         -8.95734687	         30.75185419	          6.10463584	         -0.09244493	        -50.35948874	         22.06600007	         -8.94512705	          6.09752148	        -27.92056114	         -8.98118570	         -2.18117893	        -29.85802649	        -10.35215514	        -16.00936382	         48.99310629	         77.13582615	        -27.10363314	         30.43635232	         -2.05588773	        -11.72254096	         -7.84276343	         69.22854448	         69.43921517	          4.67847635	         19.76683091	
          0.65656221	        -17.61474926	          3.60950731	          9.74666810	          0.31623208	          0.89275272	          0.33952976	         31.51723709	         -9.54189816	        -16.06381330	       -112.01859573	        -14.33921726	        -31.56263285	         -8.87734551	         30.32409382	          6.07811196	          0.15144121	        -50.20470884	         22.12304492	         -8.91870324	          6.28638613	        -27.84728328	         -8.63156478	         -2.23963313	        -30.56909341	        -10.17511490	        -16.26693782	         48.30783604	         77.14270612	        -27.05164710	         30.62445240	         -1.17529741	        -11.51046716	         -7.51471277	         69.84364856	         69.27582783	          4.68348651	         19.72014722	
          0.65742222	        -17.64951572	          3.52738152	          9.99434119	          0.32065669	          0.89251851	          0.33923971	         32.10104648	         -9.62081971	        -16.17440875	       -112.44849475	        -14.00399948	        -31.53107411	         -8.81880888	         30.01466885	          6.05734387	          0.32954461	        -50.09268400	         22.16010200	         -8.89786036	          6.42531300	        -27.79433177	         -8.37621754	         -2.28431722	        -31.08811380	        -10.04368582	        -16.46217575	         47.82818469	         77.14230814	        -27.01317101	         30.75849290	         -0.53881678	        -11.35607820	         -7.27690059	         70.29518552	         69.15290545	          4.68671200	         19.68737470	
          0.65742222	        -17.64951572	          3.52738152	          9.99434119	          0.32065669	          0.89251851	          0.33923971	         32.10104648	         -9.62081971	        -16.17440875	       -112.44849475	        -14.00399948	        -31.53107411	         -8.81880888	         30.01466885	          6.05734387	          0.32954461	        -50.09268400	         22.16010200	         -8.89786036	          6.42531300	        -27.79433177	         -8.37621754	         -2.28431722	        -31.08811380	        -10.04368582	        -16.46217575	         47.82818469	         77.14230814	        -27.01317101	         30.75849290	         -0.53881678	        -11.35607820	         -7.27690059	         70.29518552	         69.15290545	          4.68671200	         19.68737470	
          0.65779779	        -17.66469826	          3.49151713	         10.10250020	          0.32258892	          0.89241623	          0.33911304	         32.35599644	         -9.65528480	        -16.22270585	       -112.63623195	        -13.85760965	        -31.51729239	         -8.79324590	         29.87954276	          6.04827443	          0.40732249	        -50.04376267	         22.17628486	         -8.88875826	          6.48598246	        -27.77120781	         -8.26470723	         -2.30383079	        -31.31477037	         -9.98629066	        -16.54743629	         47.61872062	         77.14213434	        -26.99636847	         30.81702848	         -0.26086526	        -11.28865643	         -7.17304785	         70.49237202	         69.09922516	          4.68812057	         19.67306291	
          0.65898443	        -17.70790649	          3.37371119	         10.45543266	          0.32867754	          0.89210115	          0.33871066	         33.16210831	         -9.77404110	        -16.37740530	       -113.20407828	        -13.39965037	        -31.47235790	         -8.70790220	         29.45272759	          6.00788586	          0.66366517	        -49.88589468	         22.20346206	         -8.84807361	          6.69018403	        -27.69882153	         -7.89911223	         -2.38317367	        -32.05398940	         -9.78377143	        -16.87915053	         47.07321382	         77.12839255	        -26.93719009	         30.99143776	          0.60348005	        -11.07156031	         -6.84663649	         71.15567522	         68.89741647	          4.68971536	         19.63377142	
          0.65984444	        -17.73817392	          3.28734454	         10.71368083	          0.33308662	          0.89187458	          0.33841856	         33.74646002	         -9.86227799	        -16.48998490	       -113.61005136	        -13.06875255	        -31.43948616	         -8.64504349	         29.14342366	          5.97603379	          0.85177890	        -49.77075558	         22.21788986	         -8.81596454	          6.84092987	        -27.64650863	         -7.63123081	         -2.44456751	        -32.59481039	         -9.63233941	        -17.13326741	         46.70344413	         77.11553150	        -26.89296152	         31.11552187	          1.22685958	        -10.91332562	         -6.61045005	         71.64525925	         68.74407399	          4.69024304	         19.60659896	
          0.65984444	        -17.73817392	          3.28734454	         10.71368083	          0.33308662	          0.89187458	          0.33841856	         33.74646002	         -9.86227799	        -16.48998490	       -113.61005136	        -13.06875255	        -31.43948616	         -8.64504349	         29.14342366	          5.97603379	          0.85177890	        -49.77075558	         22.21788986	         -8.81596454	          6.84092987	        -27.64650863	         -7.63123081	         -2.44456751	        -32.59481039	         -9.63233941	        -17.13326741	         46.70344413	         77.11553150	        -26.89296152	         31.11552187	          1.22685958	        -10.91332562	         -6.61045005	         71.64525925	         68.74407399	          4.69024304	         19.60659896	
          0.66022001	        -17.75139173	          3.24962817	         10.82645798	          0.33501207	          0.89177563	          0.33829100	         34.00164682	         -9.90081110	        -16.53914849	       -113.78734008	        -12.92424924	        -31.42513105	         -8.61759304	         29.00835042	          5.96212397	          0.93392829	        -49.72047425	         22.22419049	         -8.80194248	          6.90676068	        -27.62366356	         -7.51424682	         -2.47137825	        -32.83098729	         -9.56620895	        -17.24424042	         46.54196545	         77.10991507	        -26.87364687	         31.16970948	          1.49908984	        -10.84422442	         -6.50730727	         71.85906093	         68.67710923	          4.69047348	         19.59473273	
          0.66140665	        -17.78843059	          3.12562651	         11.19113386	          0.34108212	          0.89147015	          0.33788528	         34.80795756	        -10.03046770	        -16.69454028	       -114.32399417	        -12.47131589	        -31.37800300	         -8.52594408	         28.57950157	          5.90685150	          1.20476308	        -49.55533485	         22.22690257	         -8.74941174	          7.12406000	        -27.55085517	         -7.13279672	         -2.57268338	        -33.59588457	         -9.34089938	        -17.64542059	         46.13193606	         77.09874513	        -26.80647135	         31.33482282	          2.34602027	        -10.62312212	         -6.18407784	         72.57013388	         68.43702478	          4.68832486	         19.56162590	
          0.66226667	        -17.81370735	          3.03415372	         11.45819924	          0.34547685	          0.89125112	          0.33759035	         35.39233531	        -10.12705865	        -16.80717790	       -114.70513452	        -12.14426154	        -31.34325950	         -8.45789107	         28.26800810	          5.86303716	          1.40478955	        -49.43357083	         22.22316440	         -8.70861152	          7.28463167	        -27.49787960	         -6.85241921	         -2.65160806	        -34.15643438	         -9.17217937	        -17.95294162	         45.86799834	         77.09283094	        -26.75574657	         31.45246534	          2.95544827	        -10.46196031	         -5.95070118	         73.09727132	         68.25357026	          4.68581344	         19.53908661	
          0.66226667	        -17.81370735	          3.03415372	         11.45819924	          0.34547685	          0.89125112	          0.33759035	         35.39233531	        -10.12705865	        -16.80717790	       -114.70513452	        -12.14426154	        -31.34325950	         -8.45789107	         28.26800810	          5.86303716	          1.40478955	        -49.43357083	         22.22316440	         -8.70861152	          7.28463167	        -27.49787960	         -6.85241921	         -2.65160806	        -34.15643438	         -9.17217937	        -17.95294162	         45.86799834	         77.09283094	        -26.75574657	         31.45246534	          2.95544827	        -10.46196031	         -5.95070118	         73.09727132	         68.25357026	          4.68581344	         19.53908661	
          0.66264223	        -17.82474573	          2.99420749	         11.57482688	          0.34739603	          0.89115547	          0.33746156	         35.64753347	        -10.16923999	        -16.85636683	       -114.87157878	        -12.00143668	        -31.32808699	         -8.42817227	         28.13197868	          5.84390341	          1.49214125	        -49.38039641	         22.22153194	         -8.69079404	          7.35475342	        -27.47474513	         -6.72997816	         -2.68607452	        -34.40122686	         -9.09849923	        -18.08723626	         45.75273655	         77.09024821	        -26.73359503	         31.50383991	          3.22158589	        -10.39158084	         -5.84878544	         73.32747261	         68.17345555	          4.68471670	         19.52924369	
          0.66382888	        -17.85537398	          2.86277802	         11.94927023	          0.35344846	          0.89085893	          0.33705163	         36.45384916	        -10.30843709	        -17.01034322	       -115.37605086	        -11.55303455	        -31.27782243	         -8.32914299	         27.69903451	          5.77274377	          1.77996684	        -49.20418199	         22.20445146	         -8.63045152	          7.58272742	        -27.39964569	         -6.33257894	         -2.81004640	        -35.18955588	         -8.85438678	        -18.54839137	         45.47272044	         77.10252167	        -26.65745816	         31.66307006	          4.05049237	        -10.16763883	         -5.52973635	         74.08545701	         67.89586082	          4.67830151	         19.50137938	
